<?xml version="1.0" encoding="utf-8"?>
<!-- Generator: Adobe Illustrator 16.0.0, SVG Export Plug-In . SVG Version: 6.00 Build 0)  -->
<!DOCTYPE svg PUBLIC "-//W3C//DTD SVG 1.1//EN" "http://www.w3.org/Graphics/SVG/1.1/DTD/svg11.dtd">
<svg version="1.1" id="Layer_1" xmlns="http://www.w3.org/2000/svg" xmlns:xlink="http://www.w3.org/1999/xlink" x="0px" y="0px"
	  viewBox="0 0 204 59" enable-background="new 0 0 204 59" xml:space="preserve">
<text transform="matrix(1.7 0 0 1 97.5146 57.4316)" fill="#ffffff" font-family="'MyriadPro-BoldIt'" font-size="7.622" letter-spacing="3.529"> </text>
<text transform="matrix(1.68 0 0 1 165.2305 57.4316)" fill="#ffffff" font-family="'MyriadPro-BoldIt'" font-size="7.622" letter-spacing="3.571"> </text>
<g>
	<g>
		<polygon fill="#ffffff" points="7.822,3.316 2.359,40.41 13.158,40.41 19,24.784 17.731,40.41 26.623,40.41 38.818,3.316 
			31.705,3.316 23.955,27.96 26.115,3.316 19.891,3.316 8.965,36.852 14.174,3.316 		"/>
		<polygon fill="#ffffff" points="31.705,40.41 40.216,2.808 46.821,2.808 43.518,18.433 48.159,18.561 51.653,3.316 58.577,3.316 
			49.938,40.664 43.332,40.664 46.698,25.292 41.998,25.292 38.504,40.664 31.705,40.664 		"/>
		<polygon fill="#ffffff" points="52.544,40.664 61.118,3.316 76.045,3.316 74.515,9.706 66.321,9.865 64.294,18.567 72.45,18.567 
			71.054,25.013 62.732,25.141 60.763,34.311 68.957,34.404 67.527,40.664 		"/>
		<polygon fill="#ffffff" points="70.835,40.664 79.378,2.941 94.463,2.941 92.749,9.674 84.682,9.706 82.648,18.502 90.779,18.535 
			89.413,25.292 81.188,25.292 79.029,34.339 87.286,34.37 85.825,40.664 		"/>
		<path fill="#ffffff" d="M89.095,40.664l8.571-37.723h6.796l-7.018,31.4l9.178,0.031l0.858-4.351l6.881-0.031
			c0,0-1.813,4.637,0.412,4.287c2.224-0.35,2-4.064,1.938-5.208c-0.063-1.143-1.811-5.558-2.891-7.654
			c-1.079-2.096-4.963-10.171,1.229-16.427c0,0,2.097-2.286,7.907-2.048c5.813,0.237,5.971,3.762,5.464,6.367
			c-0.509,2.604-0.698,3.652-0.698,3.652l-6.893-0.063c0,0,1.429-3.589-0.667-3.239c-2.097,0.349-1.779,3.906-1.747,4.319
			c0.033,0.413-0.73,1.46,2.541,8.352c3.271,6.891,2.191,11.21,1.493,13.084c-0.699,1.874-2.429,5.354-5.845,5.251
			c0,0-5.861,0.231-6.828,0c-0.965-0.229-3.271-1.222-3.365-3.668l-0.316-0.031l-0.857,3.699L89.095,40.664L89.095,40.664z"/>
		<path fill="#ffffff" d="M128.376,40.664c-0.989-0.404-4.716-1.128-3.478-6.988l5.572-23.913c0,0,1.906-6.098,6.86-6.574
			c4.955-0.476,7.479,0.524,8.194,1.143c0.714,0.62,2.096,1.763,1.048,5.955s-1.287,5.859-1.287,5.859l-6.765,0.047l0.811-4.049
			l0.286-1.19c0,0-0.048-3.002-2.524-0.334l-4.906,21.342c0,0-0.619,2.097,0.57,2.286c1.191,0.189,1.572,0.095,1.572,0.095
			l2.145-9.289l-1.383-0.096l1.477-6.383h8.195l-5.002,22.088C139.762,40.664,129.365,41.068,128.376,40.664z"/>
		<path fill="#ffffff" d="M156.529,3.064c-1.115-0.008-15.006,37.6-15.006,37.6h6.908l2.144-6.368h3.858l-1,6.368h6.717l5.572-37.6
			C165.725,3.064,160.197,3.091,156.529,3.064z M155.673,27.77h-2.858l5.051-16.054h0.428L155.673,27.77z"/>
		<polygon fill="#ffffff" points="165.152,40.664 172.105,9.667 166.073,9.667 167.168,3.064 186.637,3.056 184.984,9.527 
			179.063,9.572 172.105,40.664 		"/>
		<polygon fill="#ffffff" points="179.777,40.664 188.494,3.056 203.311,3.064 201.881,9.572 193.544,9.667 191.544,18.576 
			199.736,18.576 198.402,25.054 190.066,25.054 187.923,34.248 196.26,34.393 194.83,40.664 		"/>
		<polygon fill="#ffffff" points="13.158,40.41 9.949,48.287 1.058,48.287 2.359,40.41 		"/>
		<polygon fill="#ffffff" points="196.012,48.287 3.499,48.287 3.499,45.998 196.716,45.998 		"/>
	</g>
	
		<text transform="matrix(1 0 0 1 3.6289 57.4316)" fill="#ffffff" font-family="'MyriadPro-BoldIt'" font-size="9" letter-spacing="3">ENGINEERING</text>
	
		<text transform="matrix(1 0 0 1 107.3105 57.4316)" fill="#ffffff" font-family="'MyriadPro-BoldIt'" font-size="9" letter-spacing="2">SERVICES</text>
	
		<text transform="matrix(1 0 0 1 174.9102 57.4316)" fill="#ffffff" font-family="'MyriadPro-BoldIt'" font-size="9" letter-spacing="3">LTD</text>
</g>
</svg>
